<svg xmlns="http://www.w3.org/2000/svg" xmlns:xlink="http://www.w3.org/1999/xlink" width="940" zoomAndPan="magnify" viewBox="0 0 705 449.999984" height="600" preserveAspectRatio="xMidYMid meet" version="1.0"><defs><clipPath id="id1"><path d="M 2 27.984375 L 210 27.984375 L 210 292 L 2 292 Z M 2 27.984375 " clip-rule="nonzero"/></clipPath><clipPath id="id2"><path d="M 472 27.984375 L 680 27.984375 L 680 292 L 472 292 Z M 472 27.984375 " clip-rule="nonzero"/></clipPath><clipPath id="id3"><path d="M 84 330 L 166.960938 330 L 166.960938 421.734375 L 84 421.734375 Z M 84 330 " clip-rule="nonzero"/></clipPath><clipPath id="id4"><path d="M 345 330 L 428 330 L 428 421.734375 L 345 421.734375 Z M 345 330 " clip-rule="nonzero"/></clipPath><clipPath id="id5"><path d="M 440.261719 333 L 512 333 L 512 421.734375 L 440.261719 421.734375 Z M 440.261719 333 " clip-rule="nonzero"/></clipPath><clipPath id="id6"><path d="M 21 65.910156 L 171.023438 65.910156 L 171.023438 89.128906 L 21 89.128906 Z M 228.132812 139.238281 L 229 139.238281 L 229 163.695312 L 228.132812 163.695312 Z M 107.390625 256.878906 L 229 256.878906 L 229 274.601562 L 107.390625 274.601562 Z M 107.390625 256.878906 " clip-rule="nonzero"/></clipPath><clipPath id="id7"><path d="M 363.441406 89.128906 L 461 89.128906 L 461 109.910156 L 363.441406 109.910156 Z M 256 139.238281 L 461 139.238281 L 461 163.695312 L 256 163.695312 Z M 256 139.238281 " clip-rule="nonzero"/></clipPath><clipPath id="id8"><path d="M 518.566406 65.910156 L 628.703125 65.910156 L 628.703125 89.128906 L 518.566406 89.128906 Z M 594.753906 163.695312 L 691.109375 163.695312 L 691.109375 177.128906 L 594.753906 177.128906 Z M 494.332031 263.902344 L 699 263.902344 L 699 285.296875 L 494.332031 285.296875 Z M 494.332031 263.902344 " clip-rule="nonzero"/></clipPath><clipPath id="id9"><path d="M 62.722656 354.351562 L 89 354.351562 L 89 369.644531 L 62.722656 369.644531 Z M 62.722656 354.351562 " clip-rule="nonzero"/></clipPath><clipPath id="id10"><path d="M 102.265625 354.351562 L 144.101562 354.351562 L 144.101562 369.644531 L 102.265625 369.644531 Z M 102.265625 354.351562 " clip-rule="nonzero"/></clipPath><clipPath id="id11"><path d="M 204.066406 398.347656 L 259.378906 398.347656 L 259.378906 410.574219 L 204.066406 410.574219 Z M 204.066406 398.347656 " clip-rule="nonzero"/></clipPath><clipPath id="id12"><path d="M 302 398.347656 L 342.957031 398.347656 L 342.957031 410.574219 L 302 410.574219 Z M 302 398.347656 " clip-rule="nonzero"/></clipPath><clipPath id="id13"><path d="M 407.207031 369.644531 L 446 369.644531 L 446 382.457031 L 407.207031 382.457031 Z M 407.207031 369.644531 " clip-rule="nonzero"/></clipPath><clipPath id="id14"><path d="M 458 369.644531 L 530 369.644531 L 530 382.457031 L 458 382.457031 Z M 458 369.644531 " clip-rule="nonzero"/></clipPath><clipPath id="id15"><path d="M 576.695312 413.015625 L 618 413.015625 L 618 420 L 576.695312 420 Z M 576.695312 413.015625 " clip-rule="nonzero"/></clipPath><clipPath id="id16"><path d="M 672.277344 362.90625 L 705 362.90625 L 705 376.386719 L 672.277344 376.386719 Z M 635.664062 413.015625 L 705 413.015625 L 705 420 L 635.664062 420 Z M 635.664062 413.015625 " clip-rule="nonzero"/></clipPath></defs><g clip-path="url(#id1)"><path fill="rgb(3.919983%, 3.919983%, 3.919983%)" d="M 117.519531 291.785156 L 179.289062 291.785156 L 179.289062 274.605469 L 117.398438 274.605469 Z M 179.289062 191.300781 L 179.289062 130.378906 L 124.734375 130.378906 L 117.929688 191.300781 L 68.179688 191.300781 L 114.472656 89.128906 L 51.824219 89.128906 L 2.792969 196.230469 L 2.792969 236.21875 L 117.117188 236.21875 L 117.261719 256.878906 L 179.289062 256.878906 L 179.289062 236.21875 L 209.777344 236.21875 L 209.777344 191.300781 Z M 79.820312 27.988281 L 62.453125 65.90625 L 125.007812 65.90625 L 133.566406 47.015625 L 79.820312 27.988281 " fill-opacity="1" fill-rule="nonzero"/></g><path fill="rgb(3.919983%, 3.919983%, 3.919983%)" d="M 436.804688 109.898438 L 373.734375 109.898438 C 375.261719 117.855469 376.304688 127.644531 376.890625 139.234375 L 441.410156 139.234375 C 440.511719 128.730469 438.972656 118.960938 436.804688 109.898438 Z M 416.15625 63.777344 C 398.625 40.695312 373.292969 29.140625 340.144531 29.140625 C 306.972656 29.140625 281.644531 40.695312 264.128906 63.777344 C 250.035156 82.363281 241.609375 107.5 238.851562 139.234375 L 303.394531 139.234375 C 304 127.578125 305.085938 117.769531 306.640625 109.828125 C 309.175781 96.886719 313.125 87.625 318.484375 82.054688 C 323.828125 76.464844 331.035156 73.671875 340.144531 73.671875 C 349.230469 73.671875 356.441406 76.335938 361.800781 81.667969 C 363.785156 83.628906 365.550781 86.121094 367.128906 89.128906 L 430.3125 89.128906 C 426.488281 79.632812 421.769531 71.183594 416.15625 63.777344 Z M 377.441406 163.691406 C 377.441406 186.699219 376.179688 204.71875 373.625 217.753906 C 371.089844 230.824219 367.144531 240.085938 361.800781 245.53125 C 356.441406 250.996094 349.230469 253.726562 340.144531 253.726562 C 331.035156 253.726562 323.828125 250.921875 318.484375 245.347656 C 313.125 239.769531 309.175781 230.441406 306.640625 217.371094 C 304.09375 204.332031 302.824219 186.441406 302.824219 163.691406 L 237.84375 163.691406 C 237.863281 206.738281 246.621094 239.921875 264.128906 263.238281 C 281.644531 286.578125 306.972656 298.261719 340.144531 298.261719 C 373.292969 298.261719 398.625 286.578125 416.15625 263.238281 C 433.648438 239.921875 442.402344 206.738281 442.425781 163.691406 L 377.441406 163.691406 " fill-opacity="1" fill-rule="nonzero"/><g clip-path="url(#id2)"><path fill="rgb(3.919983%, 3.919983%, 3.919983%)" d="M 549.917969 27.988281 L 532.566406 65.90625 L 595.125 65.90625 L 603.675781 47.015625 Z M 587.585938 285.296875 L 587.632812 291.785156 L 649.402344 291.785156 L 649.402344 285.296875 Z M 649.402344 191.300781 L 649.402344 177.128906 L 589.617188 177.128906 L 588.019531 191.300781 L 538.296875 191.300781 L 584.589844 89.128906 L 521.9375 89.128906 L 472.910156 196.230469 L 472.910156 236.21875 L 587.230469 236.21875 L 587.4375 263.898438 L 649.402344 263.898438 L 649.402344 236.21875 L 679.894531 236.21875 L 679.894531 191.300781 Z M 594.851562 130.378906 L 591.128906 163.691406 L 649.402344 163.691406 L 649.402344 130.378906 L 594.851562 130.378906 " fill-opacity="1" fill-rule="nonzero"/></g><path fill="rgb(3.919983%, 3.919983%, 3.919983%)" d="M 51.074219 369.644531 C 51.164062 379.269531 52.105469 389.484375 53.957031 400.300781 L 26.972656 333.105469 L 0.117188 333.105469 L 0.117188 419.660156 L 19.332031 419.660156 L 19.332031 387.9375 C 19.332031 381.03125 19.097656 375.054688 18.601562 370.015625 C 18.128906 364.972656 17.445312 359.160156 16.5625 352.597656 L 42.886719 419.660156 L 70.402344 419.660156 L 70.402344 369.644531 Z M 51.058594 333.105469 L 51.058594 354.355469 L 70.402344 354.355469 L 70.402344 333.105469 L 51.058594 333.105469 " fill-opacity="1" fill-rule="nonzero"/><g clip-path="url(#id3)"><path fill="rgb(3.919983%, 3.919983%, 3.919983%)" d="M 156.015625 342.84375 C 148.785156 334.941406 138.664062 330.980469 125.675781 330.980469 C 117.175781 330.980469 109.832031 332.792969 103.703125 336.410156 C 97.550781 340.039062 92.832031 345.261719 89.546875 352.082031 C 89.179688 352.835938 88.851562 353.585938 88.535156 354.355469 L 111.097656 354.355469 C 111.316406 353.9375 111.554688 353.53125 111.796875 353.144531 C 114.824219 348.359375 119.449219 345.972656 125.675781 345.972656 C 131.914062 345.972656 136.554688 348.34375 139.625 353.09375 C 142.710938 357.84375 144.230469 365.578125 144.230469 376.320312 C 144.230469 387.058594 142.726562 394.835938 139.695312 399.621094 C 136.667969 404.40625 132.007812 406.785156 125.675781 406.785156 C 119.542969 406.785156 114.929688 404.386719 111.851562 399.542969 C 108.785156 394.726562 107.261719 386.972656 107.261719 376.320312 C 107.261719 373.953125 107.335938 371.71875 107.5 369.644531 L 84.921875 369.644531 C 84.71875 371.789062 84.609375 374.011719 84.609375 376.320312 C 84.609375 385.910156 86.261719 394.085938 89.546875 400.867188 C 92.832031 407.652344 97.550781 412.839844 103.703125 416.414062 C 109.832031 419.988281 117.175781 421.785156 125.675781 421.785156 C 134.1875 421.785156 141.535156 419.972656 147.71875 416.34375 C 153.90625 412.726562 158.640625 407.503906 161.941406 400.6875 C 165.226562 393.847656 166.882812 385.722656 166.882812 376.320312 C 166.882812 361.910156 163.246094 350.765625 156.015625 342.84375 " fill-opacity="1" fill-rule="nonzero"/></g><path fill="rgb(3.919983%, 3.919983%, 3.919983%)" d="M 194.785156 410.566406 L 194.785156 419.660156 L 216.371094 419.660156 L 216.371094 410.566406 Z M 171.214844 333.105469 L 171.214844 348.839844 L 194.785156 348.839844 L 194.785156 398.355469 L 216.371094 398.355469 L 216.371094 348.839844 L 238.875 348.839844 L 240.984375 333.105469 L 171.214844 333.105469 " fill-opacity="1" fill-rule="nonzero"/><path fill="rgb(3.919983%, 3.919983%, 3.919983%)" d="M 283.753906 410.566406 L 283.753906 419.660156 L 305.34375 419.660156 L 305.34375 410.566406 Z M 335.863281 347.71875 L 338.109375 333.105469 L 283.753906 333.105469 L 283.753906 398.355469 L 305.34375 398.355469 L 305.34375 385.324219 L 331.917969 385.324219 L 331.917969 370.710938 L 305.34375 370.710938 L 305.34375 347.71875 L 335.863281 347.71875 " fill-opacity="1" fill-rule="nonzero"/><g clip-path="url(#id4)"><path fill="rgb(3.919983%, 3.919983%, 3.919983%)" d="M 404.5 382.457031 C 404.023438 390.085938 402.589844 395.808594 400.167969 399.621094 C 397.140625 404.40625 392.457031 406.785156 386.144531 406.785156 C 380.011719 406.785156 375.40625 404.386719 372.320312 399.542969 C 369.257812 394.726562 367.710938 386.972656 367.710938 376.320312 C 367.710938 365.667969 369.234375 357.933594 372.269531 353.144531 C 375.296875 348.359375 379.917969 345.972656 386.144531 345.972656 C 392.382812 345.972656 397.03125 348.34375 400.09375 353.09375 C 402.496094 356.796875 403.945312 362.292969 404.460938 369.644531 L 427.058594 369.644531 C 426.101562 358.425781 422.558594 349.496094 416.484375 342.84375 C 409.253906 334.941406 399.140625 330.980469 386.144531 330.980469 C 377.644531 330.980469 370.300781 332.792969 364.167969 336.410156 C 358.027344 340.039062 353.304688 345.261719 350.015625 352.082031 C 346.730469 358.917969 345.082031 366.984375 345.082031 376.320312 C 345.082031 385.910156 346.730469 394.085938 350.015625 400.867188 C 353.304688 407.652344 358.027344 412.839844 364.167969 416.414062 C 370.300781 419.988281 377.644531 421.785156 386.144531 421.785156 C 394.664062 421.785156 402.003906 419.972656 408.191406 416.34375 C 414.375 412.726562 419.125 407.503906 422.414062 400.6875 C 424.964844 395.386719 426.527344 389.300781 427.09375 382.457031 L 404.5 382.457031 " fill-opacity="1" fill-rule="nonzero"/></g><g clip-path="url(#id5)"><path fill="rgb(3.919983%, 3.919983%, 3.919983%)" d="M 490.003906 382.457031 L 490.003906 390.050781 C 490.003906 395.644531 488.878906 399.785156 486.640625 402.480469 C 484.402344 405.195312 480.824219 406.550781 475.902344 406.550781 C 471.074219 406.550781 467.554688 405.195312 465.316406 402.480469 C 463.070312 399.785156 461.953125 395.644531 461.953125 390.050781 L 461.953125 382.457031 L 440.363281 382.457031 L 440.363281 390.933594 C 440.363281 400.332031 443.394531 407.832031 449.457031 413.40625 C 455.511719 418.996094 464.324219 421.785156 475.902344 421.785156 C 483.628906 421.785156 490.167969 420.445312 495.527344 417.789062 C 500.871094 415.132812 504.886719 411.464844 507.570312 406.785156 C 510.230469 402.128906 511.570312 396.851562 511.570312 390.933594 L 511.570312 382.457031 Z M 490.003906 333.105469 L 490.003906 369.644531 L 511.570312 369.644531 L 511.570312 333.105469 Z M 440.363281 333.105469 L 440.363281 369.644531 L 461.953125 369.644531 L 461.953125 333.105469 L 440.363281 333.105469 " fill-opacity="1" fill-rule="nonzero"/></g><path fill="rgb(3.919983%, 3.919983%, 3.919983%)" d="M 579.761719 333.105469 L 579.761719 368.066406 C 579.761719 378.152344 580.714844 388.890625 582.644531 400.300781 L 555.660156 333.105469 L 528.824219 333.105469 L 528.824219 419.660156 L 548.042969 419.660156 L 548.042969 387.9375 C 548.042969 381.03125 547.785156 375.054688 547.308594 370.015625 C 546.832031 364.972656 546.152344 359.160156 545.269531 352.597656 L 568.984375 413.019531 L 599.109375 413.019531 L 599.109375 333.105469 L 579.761719 333.105469 " fill-opacity="1" fill-rule="nonzero"/><path fill="rgb(3.919983%, 3.919983%, 3.919983%)" d="M 667.945312 376.394531 C 667.890625 386.972656 666.035156 394.335938 662.421875 398.484375 C 658.734375 402.703125 653.332031 404.789062 646.230469 404.789062 L 639.105469 404.789062 L 639.105469 347.976562 L 645.953125 347.976562 C 650.613281 347.976562 654.503906 348.746094 657.664062 350.285156 C 660.820312 351.832031 663.339844 354.632812 665.175781 358.703125 C 665.742188 359.949219 666.222656 361.339844 666.601562 362.898438 L 689.183594 362.898438 C 687.398438 353.480469 683.453125 346.601562 677.339844 342.292969 C 668.695312 336.171875 657.222656 333.105469 642.925781 333.105469 L 617.539062 333.105469 L 617.539062 413.019531 L 672.9375 413.019531 C 674.605469 412.066406 676.167969 411.003906 677.675781 409.851562 C 686.027344 403.375 690.25 392.214844 690.316406 376.394531 L 667.945312 376.394531 " fill-opacity="1" fill-rule="nonzero"/><g clip-path="url(#id6)"><path fill="rgb(3.919983%, 3.919983%, 3.919983%)" d="M 197.644531 236.207031 L 197.644531 291.78125 L 135.871094 291.78125 L 135.46875 236.207031 L 21.148438 236.207031 L 21.148438 196.238281 L 98.164062 27.992188 L 151.914062 47.027344 L 86.535156 191.289062 L 136.273438 191.289062 L 143.089844 130.390625 L 197.644531 130.390625 L 197.644531 191.289062 L 228.132812 191.289062 L 228.132812 236.207031 L 197.644531 236.207031 " fill-opacity="1" fill-rule="nonzero"/></g><g clip-path="url(#id7)"><path fill="rgb(3.919983%, 3.919983%, 3.919983%)" d="M 336.832031 82.046875 C 331.480469 87.632812 327.539062 96.894531 324.996094 109.832031 C 322.453125 122.777344 321.1875 140.664062 321.1875 163.503906 C 321.1875 186.34375 322.453125 204.300781 324.996094 217.363281 C 327.539062 230.4375 331.480469 239.765625 336.832031 245.34375 C 342.175781 250.929688 349.398438 253.714844 358.488281 253.714844 C 367.578125 253.714844 374.800781 250.996094 380.15625 245.535156 C 385.5 240.078125 389.445312 230.820312 391.988281 217.746094 C 394.523438 204.675781 395.796875 186.597656 395.796875 163.503906 C 395.796875 140.414062 394.523438 122.332031 391.988281 109.261719 C 389.445312 96.199219 385.5 86.996094 380.15625 81.667969 C 374.800781 76.335938 367.578125 73.671875 358.488281 73.671875 C 349.398438 73.671875 342.175781 76.46875 336.832031 82.046875 Z M 434.507812 63.777344 C 452.019531 86.867188 460.777344 120.109375 460.777344 163.503906 C 460.777344 206.648438 452.019531 239.882812 434.507812 263.234375 C 416.984375 286.582031 391.648438 298.25 358.488281 298.25 C 325.332031 298.25 299.988281 286.582031 282.480469 263.234375 C 264.960938 239.882812 256.207031 206.648438 256.207031 163.503906 C 256.207031 120.109375 264.960938 86.867188 282.480469 63.777344 C 299.988281 40.683594 325.332031 29.136719 358.488281 29.136719 C 391.648438 29.136719 416.984375 40.683594 434.507812 63.777344 " fill-opacity="1" fill-rule="nonzero"/></g><g clip-path="url(#id8)"><path fill="rgb(3.919983%, 3.919983%, 3.919983%)" d="M 667.757812 236.207031 L 667.757812 291.78125 L 605.984375 291.78125 L 605.585938 236.207031 L 491.261719 236.207031 L 491.261719 196.238281 L 568.28125 27.992188 L 622.03125 47.027344 L 556.648438 191.289062 L 606.386719 191.289062 L 613.203125 130.390625 L 667.757812 130.390625 L 667.757812 191.289062 L 698.242188 191.289062 L 698.242188 236.207031 L 667.757812 236.207031 " fill-opacity="1" fill-rule="nonzero"/></g><g clip-path="url(#id9)"><path fill="rgb(3.919983%, 3.919983%, 3.919983%)" d="M 61.246094 419.660156 L 34.925781 352.589844 C 35.800781 359.164062 36.480469 364.976562 36.96875 370.015625 C 37.445312 375.050781 37.6875 381.019531 37.6875 387.933594 L 37.6875 419.660156 L 18.472656 419.660156 L 18.472656 333.105469 L 45.320312 333.105469 L 72.304688 400.300781 C 70.371094 388.890625 69.40625 378.152344 69.40625 368.078125 L 69.40625 333.105469 L 88.757812 333.105469 L 88.757812 419.660156 L 61.246094 419.660156 " fill-opacity="1" fill-rule="nonzero"/></g><g clip-path="url(#id10)"><path fill="rgb(3.919983%, 3.919983%, 3.919983%)" d="M 130.152344 353.148438 C 127.125 357.941406 125.613281 365.660156 125.613281 376.320312 C 125.613281 386.976562 127.144531 394.722656 130.210938 399.550781 C 133.285156 404.382812 137.890625 406.796875 144.035156 406.796875 C 150.351562 406.796875 155.023438 404.402344 158.050781 399.613281 C 161.078125 394.824219 162.597656 387.058594 162.597656 376.320312 C 162.597656 365.578125 161.058594 357.835938 157.984375 353.085938 C 154.917969 348.34375 150.265625 345.96875 144.035156 345.96875 C 137.804688 345.96875 133.171875 348.363281 130.152344 353.148438 Z M 174.371094 342.847656 C 181.613281 350.757812 185.230469 361.917969 185.230469 376.320312 C 185.230469 385.730469 183.585938 393.847656 180.296875 400.671875 C 177.003906 407.503906 172.265625 412.726562 166.082031 416.347656 C 159.894531 419.972656 152.542969 421.78125 144.035156 421.78125 C 135.523438 421.78125 128.195312 419.988281 122.054688 416.414062 C 115.910156 412.835938 111.199219 407.652344 107.90625 400.863281 C 104.617188 394.074219 102.972656 385.898438 102.972656 376.320312 C 102.972656 366.996094 104.617188 358.917969 107.90625 352.089844 C 111.199219 345.261719 115.910156 340.035156 122.054688 336.414062 C 128.195312 332.792969 135.523438 330.984375 144.035156 330.984375 C 157.019531 330.984375 167.132812 334.9375 174.371094 342.847656 " fill-opacity="1" fill-rule="nonzero"/></g><g clip-path="url(#id11)"><path fill="rgb(3.919983%, 3.919983%, 3.919983%)" d="M 234.71875 348.84375 L 234.71875 419.660156 L 213.132812 419.660156 L 213.132812 348.84375 L 189.574219 348.84375 L 189.574219 333.105469 L 259.332031 333.105469 L 257.222656 348.84375 L 234.71875 348.84375 " fill-opacity="1" fill-rule="nonzero"/></g><g clip-path="url(#id12)"><path fill="rgb(3.919983%, 3.919983%, 3.919983%)" d="M 323.691406 347.71875 L 323.691406 370.699219 L 350.277344 370.699219 L 350.277344 385.3125 L 323.691406 385.3125 L 323.691406 419.660156 L 302.105469 419.660156 L 302.105469 333.105469 L 356.460938 333.105469 L 354.230469 347.71875 L 323.691406 347.71875 " fill-opacity="1" fill-rule="nonzero"/></g><g clip-path="url(#id13)"><path fill="rgb(3.919983%, 3.919983%, 3.919983%)" d="M 390.613281 353.148438 C 387.585938 357.941406 386.078125 365.660156 386.078125 376.320312 C 386.078125 386.976562 387.609375 394.722656 390.683594 399.550781 C 393.753906 404.382812 398.363281 406.796875 404.503906 406.796875 C 410.820312 406.796875 415.496094 404.402344 418.523438 399.613281 C 421.550781 394.824219 423.066406 387.058594 423.066406 376.320312 C 423.066406 365.578125 421.527344 357.835938 418.453125 353.085938 C 415.386719 348.34375 410.734375 345.96875 404.503906 345.96875 C 398.273438 345.96875 393.648438 348.363281 390.613281 353.148438 Z M 434.839844 342.847656 C 442.082031 350.757812 445.703125 361.917969 445.703125 376.320312 C 445.703125 385.730469 444.054688 393.847656 440.765625 400.671875 C 437.480469 407.503906 432.734375 412.726562 426.546875 416.347656 C 420.363281 419.972656 413.011719 421.78125 404.503906 421.78125 C 395.996094 421.78125 388.664062 419.988281 382.523438 416.414062 C 376.378906 412.835938 371.667969 407.652344 368.375 400.863281 C 365.085938 394.074219 363.441406 385.898438 363.441406 376.320312 C 363.441406 366.996094 365.085938 358.917969 368.375 352.089844 C 371.667969 345.261719 376.378906 340.035156 382.523438 336.414062 C 388.664062 332.792969 395.996094 330.984375 404.503906 330.984375 C 417.488281 330.984375 427.605469 334.9375 434.839844 342.847656 " fill-opacity="1" fill-rule="nonzero"/></g><g clip-path="url(#id14)"><path fill="rgb(3.919983%, 3.919983%, 3.919983%)" d="M 525.917969 406.796875 C 523.242188 411.457031 519.230469 415.125 513.875 417.789062 C 508.523438 420.445312 501.988281 421.78125 494.269531 421.78125 C 482.683594 421.78125 473.867188 418.996094 467.8125 413.417969 C 461.757812 407.835938 458.730469 400.34375 458.730469 390.933594 L 458.730469 333.105469 L 480.316406 333.105469 L 480.316406 390.054688 C 480.316406 395.636719 481.429688 399.777344 483.671875 402.484375 C 485.910156 405.195312 489.4375 406.542969 494.269531 406.542969 C 499.179688 406.542969 502.757812 405.195312 504.996094 402.484375 C 507.230469 399.777344 508.347656 395.636719 508.347656 390.054688 L 508.347656 333.105469 L 529.9375 333.105469 L 529.9375 390.933594 C 529.9375 396.84375 528.597656 402.128906 525.917969 406.796875 " fill-opacity="1" fill-rule="nonzero"/></g><g clip-path="url(#id15)"><path fill="rgb(3.919983%, 3.919983%, 3.919983%)" d="M 589.953125 419.660156 L 563.625 352.589844 C 564.5 359.164062 565.183594 364.976562 565.667969 370.015625 C 566.152344 375.050781 566.390625 381.019531 566.390625 387.933594 L 566.390625 419.660156 L 547.179688 419.660156 L 547.179688 333.105469 L 574.023438 333.105469 L 601.007812 400.300781 C 599.078125 388.890625 598.113281 378.152344 598.113281 368.078125 L 598.113281 333.105469 L 617.464844 333.105469 L 617.464844 419.660156 L 589.953125 419.660156 " fill-opacity="1" fill-rule="nonzero"/></g><g clip-path="url(#id16)"><path fill="rgb(3.919983%, 3.919983%, 3.919983%)" d="M 657.46875 404.796875 L 664.574219 404.796875 C 671.683594 404.796875 677.078125 402.691406 680.765625 398.488281 C 684.453125 394.285156 686.292969 386.769531 686.292969 375.949219 C 686.292969 368.535156 685.371094 362.792969 683.53125 358.707031 C 681.6875 354.632812 679.1875 351.820312 676.027344 350.28125 C 672.867188 348.738281 668.964844 347.96875 664.3125 347.96875 L 657.46875 347.96875 Z M 695.707031 342.285156 C 704.34375 348.398438 708.671875 359.625 708.671875 375.949219 C 708.671875 392.019531 704.457031 403.320312 696.035156 409.855469 C 687.609375 416.386719 676.6875 419.660156 663.261719 419.660156 L 635.886719 419.660156 L 635.886719 333.105469 L 661.285156 333.105469 C 675.585938 333.105469 687.0625 336.167969 695.707031 342.285156 " fill-opacity="1" fill-rule="nonzero"/></g></svg>